<svg xmlns="http://www.w3.org/2000/svg" xmlns:xlink="http://www.w3.org/1999/xlink" version="1.1" width="1000" height="1000" viewBox="0 0 1000 1000" xml:space="preserve">
<desc>Created with Fabric.js 3.5.0</desc>
<defs>
</defs>
<rect x="0" y="0" width="100%" height="100%" fill="#ffffff"/>
<g transform="matrix(1.2986 0 0 1.2986 499.9696 409.0719)" id="5900">
<path style="stroke: none; stroke-width: 1; stroke-dasharray: none; stroke-linecap: butt; stroke-dashoffset: 0; stroke-linejoin: miter; stroke-miterlimit: 4; is-custom-font: none; font-file-url: none; fill: rgb(0,0,0); fill-rule: nonzero; opacity: 1;" transform=" translate(-349.9989, -279.999)" d="m 473.02 295.61 h -0.23438 c -28.078 0 -50.914 22.707 -51.031 50.824 c -0.11719 28.219 22.629 51.156 50.812 51.262 h 0.23047 c 28.086 0 50.926 -22.695 51.051 -50.824 c 0.10938 -28.172 -22.629 -51.137 -50.828 -51.262 z m -0.40234 79.039 h -0.13281 c -15.461 -0.15234 -27.844 -12.84 -27.699 -28.32 c 0.14453 -15.41 12.758 -27.793 28.164 -27.668 h 0.13281 c 15.461 0.15234 27.844 12.84 27.699 28.309 c -0.14844 15.406 -12.762 27.777 -28.164 27.68 z m 0.085937 -15.203 h -0.0625 c -7.0625 -0.078125 -12.719 -5.8633 -12.652 -12.941 c 0.066407 -7.0234 5.8242 -12.691 12.859 -12.633 h 0.066406 c 7.0625 0.066406 12.719 5.8633 12.652 12.93 c -0.070312 7.0352 -5.832 12.684 -12.863 12.645 z m -290.54 -63.836 h -0.23437 c -28.078 0 -50.914 22.707 -51.039 50.824 c -0.11719 28.219 22.629 51.156 50.82 51.262 h 0.23047 c 28.086 0 50.926 -22.695 51.055 -50.824 c 0.10547 -28.172 -22.637 -51.137 -50.832 -51.262 z m -0.39844 79.035 h -0.14062 c -15.457 -0.14453 -27.836 -12.836 -27.699 -28.312 c 0.14453 -15.41 12.762 -27.789 28.164 -27.664 h 0.14062 c 15.449 0.14453 27.836 12.836 27.691 28.301 c -0.14453 15.406 -12.762 27.777 -28.156 27.676 z m 0.078125 -15.199 h -0.0625 c -7.0625 -0.078125 -12.719 -5.8633 -12.652 -12.941 c 0.066406 -7.0234 5.8281 -12.691 12.859 -12.633 h 0.066407 c 7.0547 0.066406 12.711 5.8633 12.645 12.93 c -0.058594 7.0352 -5.8242 12.684 -12.855 12.645 z m 227.79 3.168 c 0 7.332 -7.1133 13.324 -19.797 13.324 h -117.31 c -12.68 0 -19.809 -5.9922 -19.809 -13.324 v -13.332 h 156.92 v 13.332 z m 189.23 -31.879 v -57.469 c 0 -14.582 -10.426 -26.633 -23.715 -27.871 v -10.539 h -25.562 v -41.105 h 49.281 c 0.22266 -17.27 -9.5156 -31.449 -22.242 -31.449 l -349.54 0.003906 c -12.672 0 -23.043 14.18 -23.27 31.449 h 16.922 l -11.273 53.711 l -92.906 -0.003907 v 28.043 l -8.6914 0.003906 v 12.27 l -9.8672 15.371 s 27.195 13.965 40.09 -0.21875 c 13.066 -14.359 29.883 -15.148 29.883 -15.148 h 43.902 l 40.539 55.965 h 157.19 s -9.5312 -59.852 66.645 -59.852 c 33.152 0 67.582 28.723 68.363 59.852 h 0.0625 v 0.27344 c 0 7.3398 5.4883 13.344 18.16 13.344 l 39.164 0.003906 v -26.633 z m -280.95 -94.812 c -18.523 0 -27.871 15.5 -27.871 28.488 v 28.875 h -29.883 c -17.605 0 -44.406 -13.109 -35.324 -52.82 c 0.71094 -3.1211 5.8633 -37.508 8.332 -46.711 h 84.746 z m 214.4 -1.0664 h -197.14 v -41.105 h 197.14 z m 42.832 95.879 v -74.066 c 7.125 1.3438 12.504 8.293 12.504 16.598 v 57.469 z m -454.71 31.879 h -22.43 v -40.738 h 22.43 z m 211.7 -95.746 c -6.1719 0.003907 -11.211 -3.7031 -11.207 -8.2383 c 0.003906 -4.5352 5.0508 -8.25 11.219 -8.2539 l 205.59 -0.10156 c 6.1641 0 11.211 3.707 11.207 8.2422 c -0.003906 4.5352 -5.0508 8.25 -11.219 8.25 z" stroke-linecap="round"/>
</g>
</svg>